<mxfile host="app.diagrams.net" agent="Mozilla/5.0 (Windows NT 10.0; Win64; x64) AppleWebKit/537.36 (KHTML, like Gecko) Chrome/126.0.0.0 Safari/537.36" version="25.0.3">
  <diagram name="PÃ¡gina-1" id="clgV0AFaaYwmDC3vDnJh">
    <mxGraphModel dx="2723" dy="1557" grid="1" gridSize="10" guides="1" tooltips="1" connect="1" arrows="1" fold="1" page="1" pageScale="1" pageWidth="827" pageHeight="1169" math="0" shadow="0">
      <root>
        <mxCell id="0" />
        <mxCell id="1" parent="0" />
        <mxCell id="8g56XwyS-9H4CtkcCDSd-1" value="" style="rounded=0;whiteSpace=wrap;html=1;" vertex="1" parent="1">
          <mxGeometry x="100" y="500" width="1400" height="470" as="geometry" />
        </mxCell>
        <mxCell id="japYI4y_I0ZCNlIx1K_K-2" value="&lt;font style=&quot;font-size: 24px;&quot;&gt;Build&lt;/font&gt;" style="html=1;shadow=0;dashed=0;align=center;verticalAlign=middle;shape=mxgraph.arrows2.arrow;dy=0;dx=30;notch=30;fillColor=#dae8fc;strokeColor=#6c8ebf;container=0;" parent="1" vertex="1">
          <mxGeometry x="140" y="800" width="200" height="126" as="geometry" />
        </mxCell>
        <mxCell id="japYI4y_I0ZCNlIx1K_K-3" value="Merge" style="text;html=1;align=center;verticalAlign=middle;resizable=0;points=[];autosize=1;strokeColor=none;fillColor=none;fontStyle=1;fontSize=36;container=0;" parent="1" vertex="1">
          <mxGeometry x="130" y="730" width="130" height="60" as="geometry" />
        </mxCell>
        <mxCell id="japYI4y_I0ZCNlIx1K_K-4" value="&lt;font style=&quot;font-size: 24px;&quot;&gt;Unit&lt;br&gt;Tests&lt;/font&gt;" style="html=1;shadow=0;dashed=0;align=center;verticalAlign=middle;shape=mxgraph.arrows2.arrow;dy=0;dx=30;notch=30;fillColor=#dae8fc;strokeColor=#6c8ebf;container=0;" parent="1" vertex="1">
          <mxGeometry x="330" y="800" width="200" height="126" as="geometry" />
        </mxCell>
        <mxCell id="japYI4y_I0ZCNlIx1K_K-5" value="&lt;span style=&quot;font-size: 24px;&quot;&gt;Automated&lt;br&gt;Tests&lt;/span&gt;" style="html=1;shadow=0;dashed=0;align=center;verticalAlign=middle;shape=mxgraph.arrows2.arrow;dy=0;dx=30;notch=30;fillColor=#dae8fc;strokeColor=#6c8ebf;container=0;" parent="1" vertex="1">
          <mxGeometry x="710" y="800" width="200" height="126" as="geometry" />
        </mxCell>
        <mxCell id="japYI4y_I0ZCNlIx1K_K-6" value="&lt;span style=&quot;font-size: 24px;&quot;&gt;Build&lt;br&gt;Container&lt;/span&gt;" style="html=1;shadow=0;dashed=0;align=center;verticalAlign=middle;shape=mxgraph.arrows2.arrow;dy=0;dx=30;notch=30;fillColor=#dae8fc;strokeColor=#6c8ebf;container=0;" parent="1" vertex="1">
          <mxGeometry x="900" y="800" width="200" height="126" as="geometry" />
        </mxCell>
        <mxCell id="japYI4y_I0ZCNlIx1K_K-7" value="&lt;span style=&quot;font-size: 24px;&quot;&gt;Publish&lt;br&gt;Container&lt;/span&gt;" style="html=1;shadow=0;dashed=0;align=center;verticalAlign=middle;shape=mxgraph.arrows2.arrow;dy=0;dx=30;notch=30;fillColor=#dae8fc;strokeColor=#6c8ebf;container=0;" parent="1" vertex="1">
          <mxGeometry x="1090" y="800" width="200" height="126" as="geometry" />
        </mxCell>
        <mxCell id="japYI4y_I0ZCNlIx1K_K-8" value="&lt;span style=&quot;font-size: 24px;&quot;&gt;Deploy&lt;br&gt;to&lt;br&gt;EKS&lt;/span&gt;" style="html=1;shadow=0;dashed=0;align=center;verticalAlign=middle;shape=mxgraph.arrows2.arrow;dy=0;dx=30;notch=30;fillColor=#dae8fc;strokeColor=#6c8ebf;container=0;" parent="1" vertex="1">
          <mxGeometry x="1280" y="800" width="200" height="126" as="geometry" />
        </mxCell>
        <mxCell id="japYI4y_I0ZCNlIx1K_K-9" value="&lt;font style=&quot;font-size: 24px;&quot;&gt;Static &lt;br&gt;Analysis&lt;/font&gt;" style="html=1;shadow=0;dashed=0;align=center;verticalAlign=middle;shape=mxgraph.arrows2.arrow;dy=0;dx=30;notch=30;fillColor=#dae8fc;strokeColor=#6c8ebf;container=0;" parent="1" vertex="1">
          <mxGeometry x="520" y="800" width="200" height="126" as="geometry" />
        </mxCell>
        <mxCell id="japYI4y_I0ZCNlIx1K_K-10" value="&lt;font style=&quot;font-size: 24px;&quot;&gt;Static &lt;br&gt;Analysis&lt;/font&gt;" style="html=1;shadow=0;dashed=0;align=center;verticalAlign=middle;shape=mxgraph.arrows2.arrow;dy=0;dx=30;notch=30;fillColor=#dae8fc;strokeColor=#6c8ebf;" parent="1" vertex="1">
          <mxGeometry x="520" y="590" width="200" height="126" as="geometry" />
        </mxCell>
        <mxCell id="japYI4y_I0ZCNlIx1K_K-11" value="&lt;font style=&quot;font-size: 24px;&quot;&gt;Unit&lt;br&gt;Tests&lt;/font&gt;" style="html=1;shadow=0;dashed=0;align=center;verticalAlign=middle;shape=mxgraph.arrows2.arrow;dy=0;dx=30;notch=30;fillColor=#dae8fc;strokeColor=#6c8ebf;" parent="1" vertex="1">
          <mxGeometry x="330" y="590" width="200" height="126" as="geometry" />
        </mxCell>
        <mxCell id="japYI4y_I0ZCNlIx1K_K-12" value="&lt;font style=&quot;font-size: 24px;&quot;&gt;Build&lt;/font&gt;" style="html=1;shadow=0;dashed=0;align=center;verticalAlign=middle;shape=mxgraph.arrows2.arrow;dy=0;dx=30;notch=30;fillColor=#dae8fc;strokeColor=#6c8ebf;" parent="1" vertex="1">
          <mxGeometry x="140" y="590" width="200" height="126" as="geometry" />
        </mxCell>
        <mxCell id="japYI4y_I0ZCNlIx1K_K-13" value="Commit" style="text;html=1;align=center;verticalAlign=middle;resizable=0;points=[];autosize=1;strokeColor=none;fillColor=none;fontStyle=1;fontSize=36;" parent="1" vertex="1">
          <mxGeometry x="130" y="510" width="150" height="60" as="geometry" />
        </mxCell>
        <mxCell id="japYI4y_I0ZCNlIx1K_K-14" value="&lt;span style=&quot;font-size: 24px;&quot;&gt;Automated&lt;br&gt;Tests&lt;/span&gt;" style="html=1;shadow=0;dashed=0;align=center;verticalAlign=middle;shape=mxgraph.arrows2.arrow;dy=0;dx=30;notch=30;fillColor=#dae8fc;strokeColor=#6c8ebf;container=0;" parent="1" vertex="1">
          <mxGeometry x="710" y="590" width="200" height="126" as="geometry" />
        </mxCell>
      </root>
    </mxGraphModel>
  </diagram>
</mxfile>
